<?xml version="1.0" encoding="iso-8859-1"?>
<!-- Generator: Adobe Illustrator 19.0.0, SVG Export Plug-In . SVG Version: 6.00 Build 0)  -->
<svg version="1.1" id="Layer_1" xmlns="http://www.w3.org/2000/svg" xmlns:xlink="http://www.w3.org/1999/xlink" x="0px" y="0px"
	 viewBox="0 0 512 512" style="enable-background:new 0 0 512 512;" xml:space="preserve">
<circle style="fill:#366695;" cx="256" cy="256" r="256"/>
<path style="fill:#273B7A;" d="M104.41,351.092l160.728,160.728c134.044-4.706,241.859-112.452,246.674-246.469L406.119,159.66
	L104.41,351.092z"/>
<path style="fill:#FFC61B;" d="M396.569,355.556h-281.14c-8.768,0-15.874-7.108-15.874-15.874V172.32
	c0-8.768,7.108-15.875,15.874-15.875h281.14c8.768,0,15.874,7.108,15.874,15.875v167.362
	C412.444,348.448,405.337,355.556,396.569,355.556z"/>
<path style="fill:#D48B07;" d="M396.569,156.444H256v199.111h140.569c8.768,0,15.874-7.108,15.874-15.874V172.318
	C412.444,163.552,405.337,156.444,396.569,156.444z"/>
<path style="fill:#FFEDB5;" d="M221.522,327.111h-101.71c-3.332,0-6.034-2.701-6.034-6.034V190.923c0-3.332,2.701-6.034,6.034-6.034
	h101.71c3.332,0,6.034,2.701,6.034,6.034v130.155C227.556,324.41,224.854,327.111,221.522,327.111z"/>
<g>
	<circle style="fill:#366695;" cx="170.667" cy="233.589" r="24.135"/>
	<path style="fill:#366695;" d="M129.293,302.545c0-22.85,18.523-41.374,41.374-41.374s41.374,18.523,41.374,41.374H129.293z"/>
</g>
<g>
	<rect x="269.791" y="224.108" style="fill:#263A7A;" width="113.778" height="6.896"/>
	<rect x="269.791" y="252.552" style="fill:#263A7A;" width="113.778" height="6.896"/>
	<rect x="269.791" y="280.997" style="fill:#263A7A;" width="113.778" height="6.896"/>
</g>
<g>
</g>
<g>
</g>
<g>
</g>
<g>
</g>
<g>
</g>
<g>
</g>
<g>
</g>
<g>
</g>
<g>
</g>
<g>
</g>
<g>
</g>
<g>
</g>
<g>
</g>
<g>
</g>
<g>
</g>
</svg>
